<svg viewBox="0 0 1200 350" xmlns="http://www.w3.org/2000/svg"><path d="M1105.45 273c-18.2 0-31.85-4.75-40.95-14.25-9.1-9.5-13.65-23.05-13.65-40.65V80.7h49.8v42.6h60v41.4h-60v49.5c0 11.8 5.9 17.7 17.7 17.7h40.8V273Zm-165.9 0c-11.6 0-22.3-1.8-32.1-5.4-9.8-3.6-18.3-8.7-25.5-15.3-7.2-6.6-12.8-14.5-16.8-23.7s-6-19.4-6-30.6c0-11 2-21.1 6-30.3s9.6-17.1 16.8-23.7c7.2-6.6 15.7-11.7 25.5-15.3 9.8-3.6 20.5-5.4 32.1-5.4h38.1c8.6 0 16.1 1.2 22.5 3.6 6.4 2.4 11.75 5.7 16.05 9.9 4.3 4.2 7.5 9.25 9.6 15.15 2.1 5.9 3.15 12.35 3.15 19.35 0 13.2-3.8 23.1-11.4 29.7-7.6 6.6-20.1 9.9-37.5 9.9h-53.4v-27.3h42.9c7.8 0 11.7-3.5 11.7-10.5 0-7.4-3.8-11.1-11.4-11.1h-30.6c-9 0-16.3 3.1-21.9 9.3-5.6 6.2-8.4 15-8.4 26.4 0 11.4 2.8 19.95 8.4 25.65 5.6 5.7 12.9 8.55 21.9 8.55h81.6V273Zm-152.1 0v-78.6c0-17-8.7-25.5-26.1-25.5h-50.1V273h-50.4V123.3h101.7c24.8 0 43.5 6.2 56.1 18.6 12.6 12.4 18.9 30 18.9 52.8V273Zm-303.3 52.2V282h15.9c6.4 0 11.4-1.3 15-3.9 3.6-2.6 6.5-5.8 8.7-9.6l-72-145.2h50.7l44.4 96 45.6-96h51l-83.1 164.4c-3.2 6.4-6.55 11.95-10.05 16.65-3.5 4.7-7.45 8.6-11.85 11.7-4.4 3.1-9.35 5.4-14.85 6.9s-11.85 2.25-19.05 2.25Zm-94.5-52.2-51.3-62.7c-1.6-2.2-2.8-4.25-3.6-6.15-.8-1.9-1.2-3.95-1.2-6.15v-3.6c0-4.4 1.5-8.6 4.5-12.6l49.8-58.5h56.4l-60 72.6 63 77.1Zm-115.8 0V62.7h50.1V273Zm-234.9 0v-50.4h145.8c3.8 0 6.9-1.15 9.3-3.45 2.4-2.3 3.6-5.55 3.6-9.75s-1.2-7.5-3.6-9.9c-2.4-2.4-5.5-3.6-9.3-3.6h-85.8c-9 0-17.35-1.45-25.05-4.35-7.7-2.9-14.3-6.9-19.8-12s-9.8-11.25-12.9-18.45c-3.1-7.2-4.65-15.2-4.65-24s1.55-16.85 4.65-24.15c3.1-7.3 7.4-13.55 12.9-18.75 5.5-5.2 12.1-9.2 19.8-12 7.7-2.8 16.05-4.2 25.05-4.2h148.2v50.1h-145.8c-3.8 0-6.85 1.1-9.15 3.3-2.3 2.2-3.45 5.4-3.45 9.6 0 4 1.15 7.2 3.45 9.6 2.3 2.4 5.35 3.6 9.15 3.6h85.8c9.2 0 17.6 1.45 25.2 4.35 7.6 2.9 14.2 6.95 19.8 12.15 5.6 5.2 9.95 11.45 13.05 18.75 3.1 7.3 4.65 15.25 4.65 23.85 0 9-1.55 17.15-4.65 24.45-3.1 7.3-7.45 13.6-13.05 18.9-5.6 5.3-12.2 9.35-19.8 12.15-7.6 2.8-16 4.2-25.2 4.2Z" style="fill:#70b269"/></svg>