<svg viewBox="20 45 135 115" xmlns="http://www.w3.org/2000/svg"><defs><style>.cls-1{fill:#0071bc;fill-rule:evenodd}</style></defs><path class="cls-1" d="M116.388 139.371c-23.419 9.445-49.629-4.871-54.34-29.68l-15.74-10.87c-2.465 42.499 42 71.729 80.038 52.614a55.252 55.252 0 0 0 12.292-8.424h.06c2.55-2.374 1.987-6.555-1.1-8.17l-117.71-62.17ZM149.398 127.121v-.1a4.79 4.79 0 0 0-2.86-5.76l-79.06-31.25 75 40c2.7 1.478 6.074.069 6.92-2.89ZM151.848 109.801c.66-15.24-1.27-30-10.62-42.08-11.1-14.31-29.73-19.92-44.64-18.64-1.16.1-2.32.27-3.48.37-15.66 1.45-30.51 10.49-39.38 25.85a61.19 61.19 0 0 0-2.09 4c-.4.54-.8 1.07-1.18 1.63l13.38 7.13a41.301 41.301 0 0 1 2.19-4.86c14.556-27.266 53.169-28.55 69.504-2.312a40.152 40.152 0 0 1 5.876 25.112l-49.89-13.38 53.74 21.24c3.016 1.192 6.327-.867 6.59-4.1Z" style="fill:#58b560"/></svg>